HIERARCHY
ROOT Hips
{
	OFFSET	0.000000	0.000000	0.000000
	CHANNELS 6 Xposition Yposition Zposition Zrotation Xrotation Yrotation
	JOINT LeftUpLeg
	{
		OFFSET	12.811937	-7.635976	0.557276
		CHANNELS 3 Zrotation Xrotation Yrotation
		JOINT LeftLeg
		{
			OFFSET	-0.429270	-42.206159	-1.204951
			CHANNELS 3 Zrotation Xrotation Yrotation
			JOINT LeftFoot
			{
				OFFSET	-2.112259	-42.464481	-3.973220
				CHANNELS 3 Zrotation Xrotation Yrotation
				JOINT LeftFootHeel
				{
					OFFSET	0.387196	-5.329707	-3.419729
					CHANNELS 3 Zrotation Xrotation Yrotation
					End Site
					{
						OFFSET	0.327567	-0.000003	16.505428
					}
				}
			}
		}
	}
	JOINT RightUpLeg
	{
		OFFSET	-12.811937	-7.635976	0.557276
		CHANNELS 3 Zrotation Xrotation Yrotation
		JOINT RightLeg
		{
			OFFSET	0.429270	-42.206159	-1.204951
			CHANNELS 3 Zrotation Xrotation Yrotation
			JOINT RightFoot
			{
				OFFSET	2.112259	-42.464481	-3.973220
				CHANNELS 3 Zrotation Xrotation Yrotation
				JOINT RightFootHeel
				{
					OFFSET	-0.387198	-5.329707	-3.419729
					CHANNELS 3 Zrotation Xrotation Yrotation
					End Site
					{
						OFFSET	-0.327566	-0.000003	16.505428
					}
				}
			}
		}
	}
	JOINT Spine
	{
		OFFSET	0.000000	13.731315	-1.007646
		CHANNELS 3 Zrotation Xrotation Yrotation
		JOINT Spine1
		{
			OFFSET	0.000000	12.091746	-0.604589
			CHANNELS 3 Zrotation Xrotation Yrotation
			JOINT LeftShoulder
			{
				OFFSET	5.746115	20.990027	-0.833816
				CHANNELS 3 Zrotation Xrotation Yrotation
				JOINT LeftArm
				{
					OFFSET	10.881538	-1.359258	0.219250
					CHANNELS 3 Zrotation Xrotation Yrotation
					JOINT LeftForeArm
					{
						OFFSET	4.390314	-31.537147	0.202818
						CHANNELS 3 Zrotation Xrotation Yrotation
						JOINT LeftHand
						{
							OFFSET	3.168650	-24.865023	5.373370
							CHANNELS 3 Zrotation Xrotation Yrotation
							End Site
							{
								OFFSET	1.457528	-10.806075	2.170267
							}
						}
					}
				}
			}
			JOINT RightShoulder
			{
				OFFSET	-5.746115	20.990027	-0.833816
				CHANNELS 3 Zrotation Xrotation Yrotation
				JOINT RightArm
				{
					OFFSET	-10.881538	-1.359258	0.219250
					CHANNELS 3 Zrotation Xrotation Yrotation
					JOINT RightForeArm
					{
						OFFSET	-4.390314	-31.537147	0.202818
						CHANNELS 3 Zrotation Xrotation Yrotation
						JOINT RightHand
						{
							OFFSET	-3.168650	-24.865023	5.373370
							CHANNELS 3 Zrotation Xrotation Yrotation
							End Site
							{
								OFFSET	-1.457528	-10.806075	2.170267
							}
						}
					}
				}
			}
			JOINT Neck
			{
				OFFSET	0.000000	27.075639	0.680489
				CHANNELS 3 Zrotation Xrotation Yrotation
				JOINT Head
				{
					OFFSET	0.000000	12.391287	1.239129
					CHANNELS 3 Zrotation Xrotation Yrotation
					End Site
					{
						OFFSET	0.000000	13.818691	-0.105853
					}
				}
			}
		}
	}
}
MOTION
Frames:    18
Frame Time: 0.016667
-3.814377	98.785645	3.716970	-3.085537	-5.434214	3.512611	4.196362	-7.761696	2.270386	8.136171	29.251774	-9.420408	-4.014044	-16.353443	-7.745161	0.	0.	0.	6.540785	5.320095	-2.401533	2.209184	2.913571	-1.251845	-3.111900	-2.734889	-0.628842	0.	0.	0.	0.000000	0.000000	0.000000	7.165031	5.754330	-0.262837	-2.837940	3.342143	-1.905478	1.795263	-3.099241	-4.935439	-5.380627	-4.710706	-6.751769	8.804191	1.563816	-18.293133	-1.895089	4.289013	-3.261276	-0.158200	-4.682835	6.153491	0.945203	-6.731278	7.887683	0.171732	2.294427	-5.290422	-1.823887	-0.325263	7.631820	-6.832283	-8.723464	15.781504	
-3.832757	98.780103	3.689890	-3.053139	-5.486709	3.759346	4.161394	-7.788836	2.231293	8.222351	29.291161	-9.548889	-4.069917	-16.356667	-7.872199	0.	0.	0.	6.563622	5.343953	-2.430499	2.195396	2.945443	-1.340820	-3.132785	-2.768603	-0.758188	0.	0.	0.	0.000000	0.000000	0.000001	7.138538	5.774242	-0.220427	-2.794003	3.364902	-1.900927	1.759307	-3.117826	-4.929231	-5.367414	-4.701842	-6.714920	8.782782	1.596082	-18.216080	-1.855960	4.300322	-3.268028	-0.168032	-4.691489	6.175574	0.984860	-6.780210	7.943819	0.158711	2.245883	-5.259642	-1.771059	-0.247991	7.602016	-6.876332	-8.732268	15.716763	
-3.853213	98.775268	3.658231	-3.020523	-5.537640	4.000566	4.132821	-7.817699	2.196066	8.310737	29.327473	-9.694095	-4.128801	-16.357607	-7.982652	0.	0.	0.	6.584629	5.369714	-2.458389	2.185208	2.964662	-1.439560	-3.157267	-2.793213	-0.871478	0.	0.	0.	0.000000	0.000001	-0.000001	7.162505	5.786584	-0.178964	-2.796491	3.393777	-1.899467	1.720919	-3.137942	-4.926056	-5.357985	-4.683044	-6.683276	8.763268	1.623162	-18.129358	-1.861355	4.323143	-3.280627	-0.181739	-4.702637	6.213094	1.030422	-6.828825	7.975030	0.123569	2.203424	-5.226707	-1.754444	-0.143404	7.712982	-6.950711	-8.744205	15.511881	
-3.902481	98.769881	3.580300	-2.971768	-5.615277	4.351917	4.065035	-7.827514	2.023950	8.387004	29.369926	-9.862783	-4.175332	-16.365673	-8.038308	0.	0.	0.	6.614270	5.408251	-2.506619	2.194347	2.954671	-1.578253	-3.220509	-2.789232	-1.031672	0.	0.	0.	0.000000	0.000000	0.000001	7.241992	5.802510	-0.123205	-2.834832	3.436838	-1.899759	1.656170	-3.160129	-4.919158	-5.361817	-4.603766	-6.659651	8.742101	1.620150	-17.989023	-1.910827	4.365931	-3.290503	-0.199353	-4.719382	6.272615	1.089030	-6.880433	7.985972	0.053568	2.128407	-5.167402	-1.811643	-0.055012	7.550093	-6.938999	-8.745701	15.550999	
-3.919446	98.768602	3.555537	-2.955399	-5.627105	4.466362	4.025193	-7.870628	2.070472	8.479142	29.397459	-9.922878	-4.213932	-16.361492	-8.172716	0.	0.	0.	6.622474	5.405496	-2.523828	2.198160	2.953748	-1.615926	-3.243031	-2.787943	-1.088089	0.	0.	0.	0.000000	0.000001	-0.000001	7.255332	5.796241	-0.105984	-2.833042	3.448176	-1.895455	1.642692	-3.163955	-4.917070	-5.372156	-4.578138	-6.656637	8.732131	1.619026	-17.944447	-1.914948	4.377838	-3.286721	-0.202160	-4.725068	6.287523	1.102795	-6.887600	7.989248	0.032315	2.106107	-5.155671	-1.813494	-0.014599	7.541323	-6.939528	-8.746353	15.518615	
-3.954863	98.768136	3.493962	-2.907129	-5.628197	4.801211	3.922059	-7.934409	1.901821	8.585189	29.418919	-10.031431	-4.264242	-16.361633	-8.268909	0.	0.	0.	6.627412	5.378477	-2.664409	2.210181	2.940657	-1.681332	-3.289166	-2.785094	-1.205332	0.	0.	0.	0.000000	0.000000	0.000001	7.241256	5.752535	-0.053746	-2.786296	3.471604	-2.008029	1.625044	-3.166440	-4.915124	-5.399489	-4.531495	-6.642957	8.709666	1.658469	-17.700788	-1.865350	4.398911	-3.274005	-0.208817	-4.736058	6.337656	1.121869	-6.886667	7.998085	-0.014826	2.070046	-5.138408	-1.783535	0.069713	7.394879	-6.910070	-8.713623	15.534804	
-3.988021	98.763679	3.477103	-2.874473	-5.629176	5.019878	3.842277	-8.011871	1.922312	8.733645	29.451496	-10.197505	-4.317532	-16.358402	-8.380235	0.	0.	0.	6.641847	5.385494	-2.597168	2.231844	2.902200	-1.788496	-3.356308	-2.784383	-1.369179	0.	0.	0.	0.000000	0.000000	0.000000	7.286294	5.717358	-0.022133	-2.781282	3.487005	-1.877439	1.542414	-3.173175	-4.909245	-5.384322	-4.449150	-6.607179	8.699202	1.629652	-17.791494	-1.885125	4.421060	-3.276145	-0.209218	-4.732556	6.366278	1.127250	-6.888032	8.000509	-0.025624	2.101143	-5.125393	-1.838733	0.089311	7.142893	-6.857067	-8.640497	15.672204	
-4.011412	98.759842	3.450846	-2.842676	-5.630090	5.231637	3.772703	-8.067969	1.869793	8.820198	29.477819	-10.315647	-4.338848	-16.358047	-8.439563	0.	0.	0.	6.646647	5.384896	-2.621637	2.245426	2.875661	-1.861955	-3.400067	-2.794452	-1.474082	0.	0.	0.	0.000000	0.000000	-0.000001	7.340501	5.682203	0.006627	-2.774427	3.505242	-1.895448	1.463377	-3.176795	-4.876735	-5.371365	-4.394657	-6.591360	8.704934	1.638823	-17.763355	-1.913315	4.443167	-3.277663	-0.208103	-4.699983	6.380754	1.128939	-6.911637	8.004340	-0.028862	2.137081	-5.108519	-1.831422	0.269746	7.419804	-6.972404	-8.631122	15.236511	
-4.022378	98.757905	3.438404	-2.827054	-5.630530	5.336274	3.745056	-8.095253	1.847112	8.869382	29.486385	-10.382627	-4.359766	-16.355858	-8.468657	0.	0.	0.	6.648439	5.385496	-2.636286	2.252450	2.861755	-1.896397	-3.421685	-2.799524	-1.524986	0.	0.	0.	0.000001	0.000000	0.000000	7.360717	5.665867	0.018457	-2.752644	3.513445	-1.909913	1.412889	-3.178736	-4.853593	-5.362988	-4.367328	-6.588058	8.710892	1.644059	-17.756405	-1.918928	4.451535	-3.279413	-0.208142	-4.683714	6.384676	1.129414	-6.920574	8.009404	-0.031034	2.152335	-5.104081	-1.842625	0.310377	7.399646	-6.978385	-8.596948	15.174314	
-4.042304	98.755773	3.417557	-2.797055	-5.631084	5.538651	3.671912	-8.139032	1.804104	8.985253	29.492512	-10.511312	-4.400880	-16.351234	-8.528763	0.	0.	0.	6.650175	5.390123	-2.669663	2.267393	2.831389	-1.958463	-3.463670	-2.800544	-1.619807	0.	0.	0.	0.000000	0.000000	-0.000001	7.352146	5.640722	0.040302	-2.664508	3.518036	-1.934341	1.317082	-3.178289	-4.810182	-5.343313	-4.313080	-6.591584	8.724067	1.650622	-17.757179	-1.880171	4.460858	-3.278051	-0.209334	-4.653880	6.387411	1.115755	-6.902546	8.018745	-0.023913	2.144675	-5.104337	-1.816550	0.385428	7.356102	-6.995668	-8.529309	15.062184	
-4.065227	98.754717	3.378801	-2.755379	-5.631270	5.817855	3.578762	-8.181039	1.671589	9.090844	29.495131	-10.618376	-4.435557	-16.345402	-8.597468	0.	0.	0.	6.645647	5.386412	-2.792936	2.282190	2.802044	-2.011390	-3.512954	-2.799778	-1.703241	0.	0.	0.	0.000000	0.000000	0.000000	7.366612	5.602470	0.071541	-2.568079	3.524021	-1.966675	1.206960	-3.168559	-4.769974	-5.326079	-4.241472	-6.600970	8.737576	1.657833	-17.799072	-1.820739	4.475953	-3.291805	-0.229904	-4.613796	6.405796	1.088616	-6.857414	8.027159	-0.020240	2.115529	-5.115825	-1.817725	0.468742	7.205708	-6.977588	-8.370945	14.945764	
-4.077364	98.756005	3.353585	-2.729864	-5.631022	5.987047	3.523526	-8.202999	1.571310	9.140689	29.496677	-10.666273	-4.456477	-16.342745	-8.630965	0.	0.	0.	6.640851	5.381550	-2.887968	2.289421	2.787336	-2.035413	-3.523241	-2.797569	-1.751154	0.	0.	0.	0.000000	0.000000	0.000001	7.420752	5.573011	0.088029	-2.619354	3.543006	-2.155408	1.223584	-3.163432	-4.575766	-5.315657	-4.196890	-6.607496	8.738753	1.666036	-17.853424	-1.811217	4.490988	-3.310645	-0.253166	-4.589961	6.428460	1.069793	-6.828203	8.029388	-0.022479	2.095435	-5.136161	-1.855687	0.547158	7.158535	-6.985077	-8.259201	14.797204	
-4.116587	98.751800	3.314308	-2.706590	-5.630509	6.141263	3.484295	-8.193290	1.669466	9.286459	29.435640	-10.832170	-4.532539	-16.333481	-8.748335	0.	0.	0.	6.668886	5.344258	-2.780321	2.289488	2.797868	-2.144037	-3.590132	-2.794514	-1.887140	0.	0.	0.	0.000000	0.000001	0.000001	7.451427	5.548434	0.103988	-2.522469	3.534109	-2.000942	1.096932	-3.146481	-4.729521	-5.301811	-4.152458	-6.619908	8.734377	1.679814	-17.908922	-1.783080	4.500431	-3.324291	-0.271448	-4.566843	6.444347	1.054120	-6.798197	8.033682	-0.029138	2.073327	-5.164546	-1.870624	0.619660	7.119745	-6.997432	-8.135133	14.641658	
-4.131432	98.752343	3.280858	-2.685801	-5.629792	6.280743	3.446186	-8.193663	1.592319	9.320420	29.418592	-10.875751	-4.549378	-16.331547	-8.773212	0.	0.	0.	6.669871	5.322818	-2.859494	2.288474	2.802323	-2.170579	-3.605099	-2.793952	-1.915252	0.	0.	0.	0.000000	0.000000	0.000000	7.436596	5.531709	0.120385	-2.477851	3.534702	-2.081523	1.084853	-3.137988	-4.719443	-5.282038	-4.117136	-6.552779	8.733403	1.697178	-17.957943	-1.714372	4.501370	-3.332692	-0.285480	-4.544533	6.454183	1.040942	-6.768584	8.040006	-0.032296	2.052185	-5.184228	-1.839774	0.690556	7.075738	-7.004083	-8.010640	14.498700	
-4.158590	98.749814	3.247133	-2.667517	-5.628978	6.405712	3.416651	-8.182767	1.636196	9.409210	29.373447	-11.028690	-4.588573	-16.330120	-8.801723	0.	0.	0.	6.686358	5.291681	-2.828560	2.288848	2.813778	-2.223169	-3.650334	-2.791791	-2.006390	0.	0.	0.	0.000000	0.000000	-0.000001	7.439599	5.514398	0.135283	-2.401364	3.528726	-2.020878	1.033022	-3.121539	-4.698987	-5.292364	-4.076461	-6.631247	8.745668	1.712705	-18.023188	-1.668691	4.508192	-3.340981	-0.293957	-4.528444	6.460289	1.027939	-6.739660	8.056603	-0.030392	2.032487	-5.201645	-1.826981	0.762827	7.026589	-7.002635	-7.886305	14.374887	
-4.176733	98.748574	3.219414	-2.652025	-5.627976	6.515373	3.388954	-8.180727	1.601137	9.442688	29.355125	-11.079186	-4.600228	-16.328878	-8.830783	0.	0.	0.	6.695111	5.269139	-2.841625	2.288885	2.820293	-2.255909	-3.678277	-2.790337	-2.061944	0.	0.	0.	0.000000	0.000000	0.000000	7.496473	5.491494	0.147760	-2.411003	3.536721	-2.033663	0.999550	-3.114118	-4.688003	-5.273356	-4.037864	-6.631101	8.752471	1.730472	-18.078718	-1.681543	4.520501	-3.353457	-0.299740	-4.512768	6.467453	1.016238	-6.712698	8.078028	-0.023940	2.013136	-5.220035	-1.868194	0.837691	6.978538	-6.993505	-7.741274	14.249911	
-4.184585	98.748021	3.206842	-2.645113	-5.627501	6.564378	3.376359	-8.180311	1.580887	9.445803	29.351513	-11.086456	-4.601397	-16.329798	-8.848621	0.	0.	0.	6.698717	5.258958	-2.847832	2.288912	2.823298	-2.271670	-3.690951	-2.789811	-2.084918	0.	0.	0.	0.000000	0.000000	0.000002	7.525501	5.480759	0.154101	-2.417787	3.542160	-2.038088	0.973977	-3.114097	-4.685608	-5.251796	-4.016168	-6.631552	8.752486	1.740682	-18.100063	-1.690782	4.527260	-3.359807	-0.301746	-4.506555	6.469256	1.013348	-6.698810	8.091746	-0.023313	2.003149	-5.230424	-1.879237	0.912096	6.986897	-7.006794	-7.693722	14.151087	
-4.197416	98.747140	3.184495	-2.633161	-5.625799	6.650971	3.354257	-8.180394	1.545182	9.460422	29.341888	-11.113815	-4.607192	-16.330488	-8.870165	0.	0.	0.	6.704432	5.240734	-2.864473	2.287629	2.828111	-2.304955	-3.711705	-2.789492	-2.113673	0.	0.	0.	0.000000	0.000000	0.000000	7.554498	5.463768	0.168011	-2.405234	3.551128	-2.041762	0.937777	-3.114339	-4.685773	-5.223453	-3.979998	-6.632302	8.760590	1.765289	-18.164898	-1.683278	4.534070	-3.368955	-0.304795	-4.493560	6.468888	1.021878	-6.689331	8.121362	-0.034213	2.002884	-5.249783	-1.892999	0.983521	6.938874	-6.993147	-7.533617	14.030138	
